P3
4 4
255
179 39 204
0 0 0
179 39 204
179 39 204
179 39 204
179 39 204
122 56 110
179 39 204
179 39 204
179 39 204
122 56 110
179 39 204
179 39 204
0 0 0
179 39 204
179 39 204
